<?xml version="1.0" encoding="utf-8"?>
<!-- Generator: Adobe Illustrator 21.0.0, SVG Export Plug-In . SVG Version: 6.00 Build 0)  -->
<svg version="1.1" id="Layer_1" xmlns="http://www.w3.org/2000/svg" xmlns:xlink="http://www.w3.org/1999/xlink" x="0px" y="0px"
	 viewBox="0 0 1200 1200" style="enable-background:new 0 0 1200 1200;" xml:space="preserve">
<style type="text/css">
	.st0{fill-rule:evenodd;clip-rule:evenodd;fill:#0078A9;}
</style>
<g>
	<g>
		<g>
			<path class="st0" d="M114.6,1036h-3.1c0-1.6-0.4-3.9-0.4-4.3c0-0.8,0-2.3-2.3-2.3h-4.6v6.6h-2v-15.6h6.6c2.7,0,5.1,0.8,5.1,3.5
				c0,2.3-0.8,3.1-1.6,3.9c0.8,0.8,1.6,1.6,1.6,3.1v2.7c0,0.8,0,0.8,0.8,0.8V1036z M111.5,1024.7c0-1.9-1.2-1.9-1.9-1.9h-5.4v4.3
				h4.6C110.3,1027,111.5,1026.3,111.5,1024.7 M124.3,1027.8c0-9-7.4-16.4-17.1-16.4c-8.9,0-16.3,7.4-16.3,16.4
				c0,9.7,7.4,17.1,16.3,17.1C116.9,1045,124.3,1037.5,124.3,1027.8 M122,1027.8c0,8.2-6.6,14-14.8,14s-14-5.8-14-14
				c0-7.4,5.8-14,14-14S122,1020.4,122,1027.8"/>
			<path class="st0" d="M1039.6,726.4c0,22.2-14.4,32.7-39.6,32.7h-48.2v-22.2h48.2c4.7,0,8.2-0.8,9.7-2.3c1.6-1.6,3.1-3.9,3.1-6.6
				c0-3.1-1.5-6.2-3.1-7.4c-1.6-1.6-4.3-2.3-8.9-2.3c-22.9-0.8-52.1,0.8-52.1-32.3c0-14.8,9.7-31.2,35.8-31.2h49.8v22.2h-45.9
				c-4.7,0-7.8,0-9.7,1.6c-2.3,2.3-3.9,4.7-3.9,8.2c0,3.9,2.3,6.2,5,7.4c3.1,0.8,6.2,1.6,9.7,1.6h13.6c14,0,22.9,3.1,29.2,8.2
				C1036.5,709.2,1039.6,715.9,1039.6,726.4 M934.6,703.8c-6.2-5.1-15.2-8.2-29.1-8.2h-13.6c-3.5,0-6.6-0.8-9.7-1.6
				c-2.7-1.2-5.1-3.5-5.1-7.4c0-3.5,0.8-5.8,3.9-8.2c1.9-1.6,5-1.6,9.7-1.6h45.9v-22.2h-49.8c-26.8,0-35.8,16.4-35.8,31.2
				c0,33.1,29.1,31.5,52.1,32.3c4.7,0,7.4,0.8,8.9,2.3c1.5,1.2,3.1,4.3,3.1,7.4c0,2.7-1.6,5.1-3.1,6.6c-2.3,1.6-5.1,2.3-9.7,2.3
				h-48.2v22.2h48.2c25.3,0,39.6-10.5,39.6-32.7C942,715.9,938.9,709.2,934.6,703.8 M839,737.7h-58.7v-21h57.5v-21h-57.5v-19.1H839
				v-21.8h-83.2v104.4H839V737.7z M729,659.8c-8.2-4.3-17.9-5.1-30.7-5.1h-57.1v104.4h25.3v-38.2h26.8c8.9,0,14,0.8,17.9,4.7
				c4.3,5.1,4.3,14,4.3,21v12.5h24.9v-20.3c0-9.3-0.8-14-3.9-19.1c-2.3-3.1-6.6-7-12.8-9c7-2.3,17.9-11.3,17.9-27.6
				C741.5,671.1,737.2,664.5,729,659.8 M587.6,654.7h-79.7L475.6,689l-30.3-34.3H344.6v104.4h99.1l31.9-34.3l30.7,34.3h48.2V724H586
				c21.4,0,43.1-5.8,43.1-35.1C629.1,660.5,607,654.7,587.6,654.7 M708.8,697.9c-3.9,1.6-7.4,1.6-12,1.6l-30.3,0.8v-23.8h30.3
				c4.7,0,8.9,0,12,1.9c3.1,1.6,5,4.7,5,9C713.9,692.1,711.9,695.6,708.8,697.9 M587.6,703h-33v-26.5h33c9,0,14.8,3.5,14.8,12.5
				C602.3,697.9,596.5,703,587.6,703 M491.6,706.9L530,666v84.1L491.6,706.9z M430.9,737.7h-61.8v-21h55.2v-21h-55.2v-19.1h62.6
				l27.6,30.4L430.9,737.7z M970.4,579.2h-35.8l-47-78.3v78.3h-50.5l-9.7-23h-52.1l-9.7,23h-29.1c-12,0-27.6-2.7-36.5-11.7
				c-8.2-9-12.8-21-12.8-39.7c0.4-15.6,2.3-29.6,13.6-40.9c7.4-8.2,21-12.1,38.1-12.1h23.7v22.6h-23.7c-8.9,0-14.4,1.6-19.4,5.8
				c-4.7,4.7-6.6,12.9-6.6,23.8c0,11.3,2,19.5,6.6,24.9c3.5,3.5,10.5,5.1,17.1,5.1h11.3l35.8-82.2h36.9l42,98.5v-98.5h38.5
				l43.9,72.4v-72.4h25.7V579.2z M674.6,474.8h-25.2v104.4h25.2V474.8z M621.8,479.5c-8.2-4.7-17.1-4.7-29.9-4.7h-57.1v104.4h24.5
				v-37.8H586c8.9,0,14.8,0.8,18.7,4.3c4.3,5.5,3.5,14.4,3.5,20.2v13.2h25.6v-20.6c0-9-0.8-13.6-4.7-18.7c-2.3-3.1-6.6-6.6-12-9
				c7-3.1,17.9-11.3,17.9-27.7C635,491.1,629.9,484.5,621.8,479.5 M516.8,557.7h-58.3v-21H516v-21.4h-57.5v-18.7h58.3v-21.8h-83.6
				v104.4h83.6V557.7z M414.6,474.8h-40.8l-30.7,70.9l-32.6-70.9h-40v98.5l-42.8-98.5h-36.9L146,579.2h26.8l9.3-23h52.5l9.3,23h50.9
				v-81.8l36.5,81.8h21.4l36.5-81.8v81.8h25.2V474.8z M818.4,534l-17.1-41.3L784.2,534H818.4z M602.3,517.2
				c-3.9,2.3-7.4,2.3-12.4,2.3h-30.7v-23h30.7c4.3,0,9.3,0,12.4,1.6c3.1,2,4.7,5.1,4.7,9.7C607,512.2,605.4,516.1,602.3,517.2
				 M191.1,534l17.5-41.3l17.1,41.3H191.1z M1033.3,147.2H145.3v376.2l30.3-69.3h64.9l8.9,17.1v-17.1h75.8l17.1,37l16.7-37h241.7
				c11.3,0,21,2,28.4,8.2v-8.2h66.5v8.2c10.9-6.2,25.3-8.2,41.6-8.2h96l8.9,17.1v-17.1h70.7l10.5,17.1v-17.1h69.2v146.1h-69.9
				L909,578v22.2h-87.1l-9.7-23.8h-21.4l-9.7,23.8h-45.5c-17.9,0-31.1-4.3-40-9v9h-108v-33.5c0-4.7-0.8-5.4-3.9-5.4h-3.5v39H371.5
				v-18.7l-7.4,18.7h-43.9l-7.4-17.9v17.9h-84.3l-8.9-23.8h-21.4l-9.7,23.8h-43.1v440.9h888.1V773.5c-9.3,4.3-22.9,6.6-36.1,6.6
				h-64.9v-9c-7.4,5.8-21,9-33.4,9h-204v-33.5c0-4.7-0.8-4.7-4.7-4.7h-3.5v38.2h-67.2v-39.7c-11.3,5.4-23.7,5.4-35,5.4h-7.4v34.3
				h-82l-19.4-22.6l-21.4,22.6H322.5V633.7h134.1l19.1,22.6l21-22.6h90.2c10.5,0,27.6,1.6,35,9v-9h80.5c8.1,0,23.7,1.6,34.2,9v-9
				h121.3v9c7-5.8,19.4-9,30.7-9H956v9c7.4-5.1,17.9-9,31.5-9h45.9V147.2z"/>
		</g>
	</g>
</g>
</svg>
